<?xml version="1.0" standalone="no"?>
<!DOCTYPE svg PUBLIC "-//W3C//DTD SVG 20010904//EN"
 "http://www.w3.org/TR/2001/REC-SVG-20010904/DTD/svg10.dtd">
<svg version="1.0" xmlns="http://www.w3.org/2000/svg"
 width="2500.000000pt" height="2500.000000pt" viewBox="0 0 2500.000000 2500.000000"
 preserveAspectRatio="xMidYMid meet">
<metadata>
Created by potrace 1.11, written by Peter Selinger 2001-2013
</metadata>
<g transform="translate(0.000000,2500.000000) scale(0.100000,-0.100000)"
fill="#000000" stroke="none">
<path d="M0 12500 l0 -12500 12500 0 12500 0 0 12500 0 12500 -12500 0 -12500
0 0 -12500z m17565 6340 c443 -21 788 -70 1168 -166 714 -181 1449 -560 2035
-1047 50 -43 92 -82 92 -88 0 -10 -495 -856 -511 -873 -5 -6 -64 45 -146 125
-258 253 -502 423 -863 604 -692 347 -1460 496 -2352 456 -681 -30 -1137 -124
-1543 -321 -494 -239 -852 -669 -984 -1182 -54 -208 -65 -310 -66 -570 l0
-238 -569 0 -569 0 6 203 c13 485 112 898 313 1299 242 485 592 861 1082 1162
743 456 1797 687 2907 636z m-7466 -93 c360 -49 660 -140 962 -292 567 -285
1029 -699 1384 -1240 302 -460 499 -979 575 -1515 11 -74 20 -141 20 -147 0
-10 -118 -13 -558 -13 l-558 0 -18 118 c-113 736 -543 1419 -1124 1784 -256
161 -492 253 -797 311 -108 20 -138 21 -1972 24 l-1863 4 0 -1121 0 -1120
-550 0 -550 0 0 1615 0 1616 2463 -4 c2251 -3 2473 -5 2586 -20z m-3949 -5597
l0 -510 1865 0 c1255 0 1898 3 1963 11 576 63 1112 400 1467 923 l59 86 617 0
618 0 -24 -54 c-252 -571 -678 -1082 -1185 -1425 -416 -281 -776 -426 -1255
-503 l-140 -22 -1992 -3 -1993 -4 0 -2079 0 -2080 -550 0 -550 0 0 3085 0
3085 550 0 550 0 0 -510z m11369 460 c677 -146 1229 -290 1663 -434 702 -233
1270 -567 1622 -954 366 -403 554 -859 607 -1470 17 -208 7 -616 -21 -797 -75
-492 -233 -874 -517 -1248 -111 -147 -362 -394 -515 -508 -616 -459 -1398
-710 -2468 -791 -212 -16 -836 -15 -1050 1 -91 6 -245 21 -342 31 -1220 133
-2311 558 -3259 1270 -163 122 -389 309 -389 322 0 5 120 211 267 458 l268
448 120 -117 c336 -326 713 -582 1250 -846 525 -258 967 -404 1515 -500 383
-66 674 -89 1120 -89 534 0 897 39 1295 141 405 103 784 287 1030 500 357 309
545 760 545 1309 0 738 -335 1237 -1085 1619 -429 218 -1073 417 -2185 675
-670 156 -1235 308 -1655 448 -439 145 -750 292 -1062 499 -62 41 -113 77
-113 79 0 2 704 4 1564 4 l1564 0 231 -50z"/>
</g>
</svg>
